<svg width="1032" height="985" xmlns="http://www.w3.org/2000/svg" xmlns:xlink="http://www.w3.org/1999/xlink" xml:space="preserve" overflow="hidden"><g transform="translate(-870 -481)"><g><path d="M1024.5 675.5C1121.2 751.459 1217.9 827.419 1310.96 845.197 1404.01 862.975 1551.29 738.53 1582.84 782.167 1614.4 825.803 1476.03 1018.13 1500.31 1107.02 1524.58 1195.9 1626.54 1255.7 1728.5 1315.5" stroke="#A5A5A5" stroke-width="22.9167" stroke-linecap="butt" stroke-linejoin="miter" stroke-miterlimit="8" stroke-opacity="1" fill="none" fill-rule="evenodd"/><path d="M1331 550C1331 512.997 1360.77 483 1397.5 483 1434.23 483 1464 512.997 1464 550 1464 587.003 1434.23 617 1397.5 617 1360.77 617 1331 587.003 1331 550Z" fill="#0070C0" fill-rule="evenodd" fill-opacity="1"/><path d="M873 973.5C873 936.773 902.773 907 939.5 907 976.227 907 1006 936.773 1006 973.5 1006 1010.23 976.227 1040 939.5 1040 902.773 1040 873 1010.23 873 973.5Z" fill="#0070C0" fill-rule="evenodd" fill-opacity="1"/><path d="M1312 1397.5C1312 1360.77 1342 1331 1379 1331 1416 1331 1446 1360.77 1446 1397.5 1446 1434.23 1416 1464 1379 1464 1342 1464 1312 1434.23 1312 1397.5Z" fill="#0070C0" fill-rule="evenodd" fill-opacity="1"/><path d="M1766 972C1766 934.997 1795.77 905 1832.5 905 1869.23 905 1899 934.997 1899 972 1899 1009 1869.23 1039 1832.5 1039 1795.77 1039 1766 1009 1766 972Z" fill="#0070C0" fill-rule="evenodd" fill-opacity="1"/><path d="M1671 644.5C1671 607.773 1701 578 1738 578 1775 578 1805 607.773 1805 644.5 1805 681.227 1775 711 1738 711 1701 711 1671 681.227 1671 644.5Z" fill="#A9D18E" fill-rule="evenodd" fill-opacity="1"/><path d="M967 1303C967 1266 996.773 1236 1033.5 1236 1070.23 1236 1100 1266 1100 1303 1100 1340 1070.23 1370 1033.5 1370 996.773 1370 967 1340 967 1303Z" fill="#0070C0" fill-rule="evenodd" fill-opacity="1"/><path d="M971 689.5C971 652.773 1001 623 1038 623 1075 623 1105 652.773 1105 689.5 1105 726.227 1075 756 1038 756 1001 756 971 726.227 971 689.5Z" fill="#F4B183" fill-rule="evenodd" fill-opacity="1"/><path d="M1649 1303C1649 1266 1678.77 1236 1715.5 1236 1752.23 1236 1782 1266 1782 1303 1782 1340 1752.23 1370 1715.5 1370 1678.77 1370 1649 1340 1649 1303Z" fill="#F4B183" fill-rule="evenodd" fill-opacity="1"/><path d="M1512 791.5C1512 754.773 1541.77 725 1578.5 725 1615.23 725 1645 754.773 1645 791.5 1645 828.227 1615.23 858 1578.5 858 1541.77 858 1512 828.227 1512 791.5Z" fill="#F4B183" fill-rule="evenodd" fill-opacity="1"/><path d="M1433 1118C1433 1081 1462.77 1051 1499.5 1051 1536.23 1051 1566 1081 1566 1118 1566 1155 1536.23 1185 1499.5 1185 1462.77 1185 1433 1155 1433 1118Z" fill="#F4B183" fill-rule="evenodd" fill-opacity="1"/><path d="M1239 838.5C1239 801.773 1269 772 1306 772 1343 772 1373 801.773 1373 838.5 1373 875.227 1343 905 1306 905 1269 905 1239 875.227 1239 838.5Z" fill="#F4B183" fill-rule="evenodd" fill-opacity="1"/><path d="M1100 1033.5C1100 996.773 1130 967 1167 967 1204 967 1234 996.773 1234 1033.5 1234 1070.23 1204 1100 1167 1100 1130 1100 1100 1070.23 1100 1033.5Z" fill="#A9D18E" fill-rule="evenodd" fill-opacity="1"/><path d="M1170 1245.5C1170 1208.77 1199.77 1179 1236.5 1179 1273.23 1179 1303 1208.77 1303 1245.5 1303 1282.23 1273.23 1312 1236.5 1312 1199.77 1312 1170 1282.23 1170 1245.5Z" fill="#A9D18E" fill-rule="evenodd" fill-opacity="1"/></g></g></svg>